<?xml version="1.0" ?>
<mxfile host="app.diagrams.net" agent="python-script">
  <diagram id="main-diagram" name="Azure Infrastructure">
    <mxGraphModel dx="2500" dy="2000" grid="1" gridSize="10" guides="1" tooltips="1" connect="1" arrows="1" fold="1" page="1" pageScale="1" pageWidth="4681" pageHeight="3300">
      <root>
        <mxCell id="0"/>
        <mxCell id="1" parent="0"/>
        <mxCell id="node-0" style="image;aspect=fixed;html=1;points=[];align=center;fontSize=12;image=img/lib/azure2/general/Management_Groups.svg" parent="1" vertex="1">
          <mxGeometry x="1670" y="100" width="80" height="80" as="geometry"/>
          <object label="&lt;b&gt;Performance Test&lt;/b&gt;" as="value" type="Microsoft.Management/managementGroups"/>
        </mxCell>
        <mxCell id="node-1" style="image;aspect=fixed;html=1;points=[];align=center;fontSize=12;image=img/lib/azure2/general/Subscriptions.svg" parent="1" vertex="1">
          <mxGeometry x="1670" y="250" width="80" height="80" as="geometry"/>
          <object label="&lt;b&gt;Performance Subscription&lt;/b&gt;" as="value" type="Microsoft.Resources/subscriptions"/>
        </mxCell>
        <mxCell id="node-2" style="image;aspect=fixed;html=1;points=[];align=center;fontSize=12;image=img/lib/azure2/general/Resource_Groups.svg" parent="1" vertex="1">
          <mxGeometry x="280" y="560" width="80" height="80" as="geometry"/>
          <object label="&lt;b&gt;rg-radial-01&lt;/b&gt;" as="value" type="Microsoft.Resources/subscriptions/resourceGroups"/>
        </mxCell>
        <mxCell id="node-3" style="image;aspect=fixed;html=1;points=[];align=center;fontSize=12;image=img/lib/azure2/compute/Virtual_Machine.svg" parent="1" vertex="1">
          <mxGeometry x="400.0" y="560.0" width="80" height="80" as="geometry"/>
          <object label="&lt;b&gt;resource-01&lt;/b&gt;" as="value" type="Microsoft.Compute/virtualMachines"/>
        </mxCell>
        <mxCell id="node-4" style="image;aspect=fixed;html=1;points=[];align=center;fontSize=12;image=img/lib/azure2/storage/Storage_Accounts.svg" parent="1" vertex="1">
          <mxGeometry x="280.0" y="680.0" width="80" height="80" as="geometry"/>
          <object label="&lt;b&gt;resource-02&lt;/b&gt;" as="value" type="Microsoft.Storage/storageAccounts"/>
        </mxCell>
        <mxCell id="node-5" style="image;aspect=fixed;html=1;points=[];align=center;fontSize=12;image=img/lib/azure2/networking/Virtual_Networks.svg" parent="1" vertex="1">
          <mxGeometry x="160.0" y="560.0" width="80" height="80" as="geometry"/>
          <object label="&lt;b&gt;resource-03&lt;/b&gt;" as="value" type="Microsoft.Network/virtualNetworks"/>
        </mxCell>
        <mxCell id="node-6" style="image;aspect=fixed;html=1;points=[];align=center;fontSize=12;image=img/lib/azure2/security/Key_Vaults.svg" parent="1" vertex="1">
          <mxGeometry x="280.0" y="440.0" width="80" height="80" as="geometry"/>
          <object label="&lt;b&gt;resource-04&lt;/b&gt;" as="value" type="Microsoft.KeyVault/vaults"/>
        </mxCell>
        <mxCell id="node-7" style="image;aspect=fixed;html=1;points=[];align=center;fontSize=12;image=img/lib/azure2/general/Resource_Groups.svg" parent="1" vertex="1">
          <mxGeometry x="900" y="560" width="80" height="80" as="geometry"/>
          <object label="&lt;b&gt;rg-radial-02&lt;/b&gt;" as="value" type="Microsoft.Resources/subscriptions/resourceGroups"/>
        </mxCell>
        <mxCell id="node-8" style="image;aspect=fixed;html=1;points=[];align=center;fontSize=12;image=img/lib/azure2/compute/Virtual_Machine.svg" parent="1" vertex="1">
          <mxGeometry x="1020.0" y="560.0" width="80" height="80" as="geometry"/>
          <object label="&lt;b&gt;resource-01&lt;/b&gt;" as="value" type="Microsoft.Compute/virtualMachines"/>
        </mxCell>
        <mxCell id="node-9" style="image;aspect=fixed;html=1;points=[];align=center;fontSize=12;image=img/lib/azure2/storage/Storage_Accounts.svg" parent="1" vertex="1">
          <mxGeometry x="960.0" y="663.9230484541326" width="80" height="80" as="geometry"/>
          <object label="&lt;b&gt;resource-02&lt;/b&gt;" as="value" type="Microsoft.Storage/storageAccounts"/>
        </mxCell>
        <mxCell id="node-10" style="image;aspect=fixed;html=1;points=[];align=center;fontSize=12;image=img/lib/azure2/networking/Virtual_Networks.svg" parent="1" vertex="1">
          <mxGeometry x="840.0" y="663.9230484541326" width="80" height="80" as="geometry"/>
          <object label="&lt;b&gt;resource-03&lt;/b&gt;" as="value" type="Microsoft.Network/virtualNetworks"/>
        </mxCell>
        <mxCell id="node-11" style="image;aspect=fixed;html=1;points=[];align=center;fontSize=12;image=img/lib/azure2/security/Key_Vaults.svg" parent="1" vertex="1">
          <mxGeometry x="780.0" y="560.0" width="80" height="80" as="geometry"/>
          <object label="&lt;b&gt;resource-04&lt;/b&gt;" as="value" type="Microsoft.KeyVault/vaults"/>
        </mxCell>
        <mxCell id="node-12" style="image;aspect=fixed;html=1;points=[];align=center;fontSize=12;image=img/lib/azure2/databases/SQL_Server.svg" parent="1" vertex="1">
          <mxGeometry x="840.0" y="456.07695154586736" width="80" height="80" as="geometry"/>
          <object label="&lt;b&gt;resource-05&lt;/b&gt;" as="value" type="Microsoft.Sql/servers"/>
        </mxCell>
        <mxCell id="node-13" style="image;aspect=fixed;html=1;points=[];align=center;fontSize=12;image=img/lib/azure2/networking/Load_Balancers.svg" parent="1" vertex="1">
          <mxGeometry x="959.9999999999999" y="456.0769515458673" width="80" height="80" as="geometry"/>
          <object label="&lt;b&gt;resource-06&lt;/b&gt;" as="value" type="Microsoft.Network/loadBalancers"/>
        </mxCell>
        <mxCell id="node-14" style="image;aspect=fixed;html=1;points=[];align=center;fontSize=12;image=img/lib/azure2/general/Resource_Groups.svg" parent="1" vertex="1">
          <mxGeometry x="1520" y="560" width="80" height="80" as="geometry"/>
          <object label="&lt;b&gt;rg-radial-03&lt;/b&gt;" as="value" type="Microsoft.Resources/subscriptions/resourceGroups"/>
        </mxCell>
        <mxCell id="node-15" style="image;aspect=fixed;html=1;points=[];align=center;fontSize=12;image=img/lib/azure2/compute/Virtual_Machine.svg" parent="1" vertex="1">
          <mxGeometry x="1640.0" y="560.0" width="80" height="80" as="geometry"/>
          <object label="&lt;b&gt;resource-01&lt;/b&gt;" as="value" type="Microsoft.Compute/virtualMachines"/>
        </mxCell>
        <mxCell id="node-16" style="image;aspect=fixed;html=1;points=[];align=center;fontSize=12;image=img/lib/azure2/storage/Storage_Accounts.svg" parent="1" vertex="1">
          <mxGeometry x="1604.8528137423857" y="644.8528137423857" width="80" height="80" as="geometry"/>
          <object label="&lt;b&gt;resource-02&lt;/b&gt;" as="value" type="Microsoft.Storage/storageAccounts"/>
        </mxCell>
        <mxCell id="node-17" style="image;aspect=fixed;html=1;points=[];align=center;fontSize=12;image=img/lib/azure2/networking/Virtual_Networks.svg" parent="1" vertex="1">
          <mxGeometry x="1520.0" y="680.0" width="80" height="80" as="geometry"/>
          <object label="&lt;b&gt;resource-03&lt;/b&gt;" as="value" type="Microsoft.Network/virtualNetworks"/>
        </mxCell>
        <mxCell id="node-18" style="image;aspect=fixed;html=1;points=[];align=center;fontSize=12;image=img/lib/azure2/security/Key_Vaults.svg" parent="1" vertex="1">
          <mxGeometry x="1435.1471862576143" y="644.8528137423857" width="80" height="80" as="geometry"/>
          <object label="&lt;b&gt;resource-04&lt;/b&gt;" as="value" type="Microsoft.KeyVault/vaults"/>
        </mxCell>
        <mxCell id="node-19" style="image;aspect=fixed;html=1;points=[];align=center;fontSize=12;image=img/lib/azure2/databases/SQL_Server.svg" parent="1" vertex="1">
          <mxGeometry x="1400.0" y="560.0" width="80" height="80" as="geometry"/>
          <object label="&lt;b&gt;resource-05&lt;/b&gt;" as="value" type="Microsoft.Sql/servers"/>
        </mxCell>
        <mxCell id="node-20" style="image;aspect=fixed;html=1;points=[];align=center;fontSize=12;image=img/lib/azure2/networking/Load_Balancers.svg" parent="1" vertex="1">
          <mxGeometry x="1435.1471862576143" y="475.1471862576143" width="80" height="80" as="geometry"/>
          <object label="&lt;b&gt;resource-06&lt;/b&gt;" as="value" type="Microsoft.Network/loadBalancers"/>
        </mxCell>
        <mxCell id="node-21" style="image;aspect=fixed;html=1;points=[];align=center;fontSize=12;image=img/lib/azure2/management_governance/Application_Insights.svg" parent="1" vertex="1">
          <mxGeometry x="1520.0" y="440.0" width="80" height="80" as="geometry"/>
          <object label="&lt;b&gt;resource-07&lt;/b&gt;" as="value" type="Microsoft.Insights/components"/>
        </mxCell>
        <mxCell id="node-22" style="image;aspect=fixed;html=1;points=[];align=center;fontSize=12;image=img/lib/azure2/networking/Network_Security_Groups.svg" parent="1" vertex="1">
          <mxGeometry x="1604.8528137423857" y="475.1471862576143" width="80" height="80" as="geometry"/>
          <object label="&lt;b&gt;resource-08&lt;/b&gt;" as="value" type="Microsoft.Network/networkSecurityGroups"/>
        </mxCell>
        <mxCell id="node-23" style="image;aspect=fixed;html=1;points=[];align=center;fontSize=12;image=img/lib/azure2/general/Resource_Groups.svg" parent="1" vertex="1">
          <mxGeometry x="2170" y="590" width="80" height="80" as="geometry"/>
          <object label="&lt;b&gt;rg-radial-04&lt;/b&gt;" as="value" type="Microsoft.Resources/subscriptions/resourceGroups"/>
        </mxCell>
        <mxCell id="node-24" style="image;aspect=fixed;html=1;points=[];align=center;fontSize=12;image=img/lib/azure2/compute/Virtual_Machine.svg" parent="1" vertex="1">
          <mxGeometry x="2320.0" y="590.0" width="80" height="80" as="geometry"/>
          <object label="&lt;b&gt;resource-01&lt;/b&gt;" as="value" type="Microsoft.Compute/virtualMachines"/>
        </mxCell>
        <mxCell id="node-25" style="image;aspect=fixed;html=1;points=[];align=center;fontSize=12;image=img/lib/azure2/storage/Storage_Accounts.svg" parent="1" vertex="1">
          <mxGeometry x="2291.3525491562423" y="678.167787843871" width="80" height="80" as="geometry"/>
          <object label="&lt;b&gt;resource-02&lt;/b&gt;" as="value" type="Microsoft.Storage/storageAccounts"/>
        </mxCell>
        <mxCell id="node-26" style="image;aspect=fixed;html=1;points=[];align=center;fontSize=12;image=img/lib/azure2/networking/Virtual_Networks.svg" parent="1" vertex="1">
          <mxGeometry x="2216.3525491562423" y="732.658477444273" width="80" height="80" as="geometry"/>
          <object label="&lt;b&gt;resource-03&lt;/b&gt;" as="value" type="Microsoft.Network/virtualNetworks"/>
        </mxCell>
        <mxCell id="node-27" style="image;aspect=fixed;html=1;points=[];align=center;fontSize=12;image=img/lib/azure2/security/Key_Vaults.svg" parent="1" vertex="1">
          <mxGeometry x="2123.6474508437577" y="732.6584774442731" width="80" height="80" as="geometry"/>
          <object label="&lt;b&gt;resource-04&lt;/b&gt;" as="value" type="Microsoft.KeyVault/vaults"/>
        </mxCell>
        <mxCell id="node-28" style="image;aspect=fixed;html=1;points=[];align=center;fontSize=12;image=img/lib/azure2/databases/SQL_Server.svg" parent="1" vertex="1">
          <mxGeometry x="2048.6474508437577" y="678.167787843871" width="80" height="80" as="geometry"/>
          <object label="&lt;b&gt;resource-05&lt;/b&gt;" as="value" type="Microsoft.Sql/servers"/>
        </mxCell>
        <mxCell id="node-29" style="image;aspect=fixed;html=1;points=[];align=center;fontSize=12;image=img/lib/azure2/networking/Load_Balancers.svg" parent="1" vertex="1">
          <mxGeometry x="2020.0" y="590.0" width="80" height="80" as="geometry"/>
          <object label="&lt;b&gt;resource-06&lt;/b&gt;" as="value" type="Microsoft.Network/loadBalancers"/>
        </mxCell>
        <mxCell id="node-30" style="image;aspect=fixed;html=1;points=[];align=center;fontSize=12;image=img/lib/azure2/management_governance/Application_Insights.svg" parent="1" vertex="1">
          <mxGeometry x="2048.6474508437577" y="501.83221215612906" width="80" height="80" as="geometry"/>
          <object label="&lt;b&gt;resource-07&lt;/b&gt;" as="value" type="Microsoft.Insights/components"/>
        </mxCell>
        <mxCell id="node-31" style="image;aspect=fixed;html=1;points=[];align=center;fontSize=12;image=img/lib/azure2/networking/Network_Security_Groups.svg" parent="1" vertex="1">
          <mxGeometry x="2123.6474508437577" y="447.341522555727" width="80" height="80" as="geometry"/>
          <object label="&lt;b&gt;resource-08&lt;/b&gt;" as="value" type="Microsoft.Network/networkSecurityGroups"/>
        </mxCell>
        <mxCell id="node-32" style="image;aspect=fixed;html=1;points=[];align=center;fontSize=12;image=img/lib/azure2/compute/Disks.svg" parent="1" vertex="1">
          <mxGeometry x="2216.3525491562423" y="447.34152255572695" width="80" height="80" as="geometry"/>
          <object label="&lt;b&gt;resource-09&lt;/b&gt;" as="value" type="Microsoft.Compute/disks"/>
        </mxCell>
        <mxCell id="node-33" style="image;aspect=fixed;html=1;points=[];align=center;fontSize=12;image=img/lib/azure2/networking/Public_IP_Addresses.svg" parent="1" vertex="1">
          <mxGeometry x="2291.3525491562423" y="501.832212156129" width="80" height="80" as="geometry"/>
          <object label="&lt;b&gt;resource-10&lt;/b&gt;" as="value" type="Microsoft.Network/publicIPAddresses"/>
        </mxCell>
        <mxCell id="node-34" style="image;aspect=fixed;html=1;points=[];align=center;fontSize=12;image=img/lib/azure2/general/Resource_Groups.svg" parent="1" vertex="1">
          <mxGeometry x="2880" y="620" width="80" height="80" as="geometry"/>
          <object label="&lt;b&gt;rg-radial-05&lt;/b&gt;" as="value" type="Microsoft.Resources/subscriptions/resourceGroups"/>
        </mxCell>
        <mxCell id="node-35" style="image;aspect=fixed;html=1;points=[];align=center;fontSize=12;image=img/lib/azure2/compute/Virtual_Machine.svg" parent="1" vertex="1">
          <mxGeometry x="3060.0" y="620.0" width="80" height="80" as="geometry"/>
          <object label="&lt;b&gt;resource-01&lt;/b&gt;" as="value" type="Microsoft.Compute/virtualMachines"/>
        </mxCell>
        <mxCell id="node-36" style="image;aspect=fixed;html=1;points=[];align=center;fontSize=12;image=img/lib/azure2/storage/Storage_Accounts.svg" parent="1" vertex="1">
          <mxGeometry x="3035.8845726811987" y="710.0" width="80" height="80" as="geometry"/>
          <object label="&lt;b&gt;resource-02&lt;/b&gt;" as="value" type="Microsoft.Storage/storageAccounts"/>
        </mxCell>
        <mxCell id="node-37" style="image;aspect=fixed;html=1;points=[];align=center;fontSize=12;image=img/lib/azure2/networking/Virtual_Networks.svg" parent="1" vertex="1">
          <mxGeometry x="2970.0" y="775.884572681199" width="80" height="80" as="geometry"/>
          <object label="&lt;b&gt;resource-03&lt;/b&gt;" as="value" type="Microsoft.Network/virtualNetworks"/>
        </mxCell>
        <mxCell id="node-38" style="image;aspect=fixed;html=1;points=[];align=center;fontSize=12;image=img/lib/azure2/security/Key_Vaults.svg" parent="1" vertex="1">
          <mxGeometry x="2880.0" y="800.0" width="80" height="80" as="geometry"/>
          <object label="&lt;b&gt;resource-04&lt;/b&gt;" as="value" type="Microsoft.KeyVault/vaults"/>
        </mxCell>
        <mxCell id="node-39" style="image;aspect=fixed;html=1;points=[];align=center;fontSize=12;image=img/lib/azure2/databases/SQL_Server.svg" parent="1" vertex="1">
          <mxGeometry x="2790.0" y="775.884572681199" width="80" height="80" as="geometry"/>
          <object label="&lt;b&gt;resource-05&lt;/b&gt;" as="value" type="Microsoft.Sql/servers"/>
        </mxCell>
        <mxCell id="node-40" style="image;aspect=fixed;html=1;points=[];align=center;fontSize=12;image=img/lib/azure2/networking/Load_Balancers.svg" parent="1" vertex="1">
          <mxGeometry x="2724.1154273188013" y="710.0" width="80" height="80" as="geometry"/>
          <object label="&lt;b&gt;resource-06&lt;/b&gt;" as="value" type="Microsoft.Network/loadBalancers"/>
        </mxCell>
        <mxCell id="node-41" style="image;aspect=fixed;html=1;points=[];align=center;fontSize=12;image=img/lib/azure2/management_governance/Application_Insights.svg" parent="1" vertex="1">
          <mxGeometry x="2700.0" y="620.0" width="80" height="80" as="geometry"/>
          <object label="&lt;b&gt;resource-07&lt;/b&gt;" as="value" type="Microsoft.Insights/components"/>
        </mxCell>
        <mxCell id="node-42" style="image;aspect=fixed;html=1;points=[];align=center;fontSize=12;image=img/lib/azure2/networking/Network_Security_Groups.svg" parent="1" vertex="1">
          <mxGeometry x="2724.115427318801" y="530.0" width="80" height="80" as="geometry"/>
          <object label="&lt;b&gt;resource-08&lt;/b&gt;" as="value" type="Microsoft.Network/networkSecurityGroups"/>
        </mxCell>
        <mxCell id="node-43" style="image;aspect=fixed;html=1;points=[];align=center;fontSize=12;image=img/lib/azure2/compute/Disks.svg" parent="1" vertex="1">
          <mxGeometry x="2790.0" y="464.1154273188011" width="80" height="80" as="geometry"/>
          <object label="&lt;b&gt;resource-09&lt;/b&gt;" as="value" type="Microsoft.Compute/disks"/>
        </mxCell>
        <mxCell id="node-44" style="image;aspect=fixed;html=1;points=[];align=center;fontSize=12;image=img/lib/azure2/networking/Public_IP_Addresses.svg" parent="1" vertex="1">
          <mxGeometry x="2880.0" y="440.0" width="80" height="80" as="geometry"/>
          <object label="&lt;b&gt;resource-10&lt;/b&gt;" as="value" type="Microsoft.Network/publicIPAddresses"/>
        </mxCell>
        <mxCell id="node-45" style="image;aspect=fixed;html=1;points=[];align=center;fontSize=12;image=img/lib/azure2/compute/App_Services.svg" parent="1" vertex="1">
          <mxGeometry x="2970.0" y="464.115427318801" width="80" height="80" as="geometry"/>
          <object label="&lt;b&gt;resource-11&lt;/b&gt;" as="value" type="Microsoft.Web/sites"/>
        </mxCell>
        <mxCell id="node-46" style="rounded=1;whiteSpace=wrap;html=1;shadow=1;fillColor=#dae8fc;strokeColor=#6c8ebf;" parent="1" vertex="1">
          <mxGeometry x="3035.8845726811987" y="529.9999999999999" width="80" height="80" as="geometry"/>
          <object label="&lt;b&gt;resource-12&lt;/b&gt;" as="value" type="Microsoft.DocumentDB/databaseAccounts"/>
        </mxCell>
        <mxCell id="edge-0" style="edgeStyle=orthogonalEdgeStyle;rounded=0;orthogonalLoop=1;jettySize=auto;html=1;endArrow=classic;strokeColor=#1976d2;strokeWidth=2;" parent="1" source="node-1" target="node-0" edge="1">
          <mxGeometry relative="1" as="geometry"/>
        </mxCell>
        <mxCell id="edge-1" style="edgeStyle=orthogonalEdgeStyle;rounded=0;orthogonalLoop=1;jettySize=auto;html=1;endArrow=classic;strokeColor=#1976d2;strokeWidth=2;" parent="1" source="node-2" target="node-1" edge="1">
          <mxGeometry relative="1" as="geometry"/>
        </mxCell>
        <mxCell id="edge-2" style="edgeStyle=orthogonalEdgeStyle;rounded=0;orthogonalLoop=1;jettySize=auto;html=1;endArrow=classic;strokeColor=#1976d2;strokeWidth=2;" parent="1" source="node-3" target="node-2" edge="1">
          <mxGeometry relative="1" as="geometry"/>
        </mxCell>
        <mxCell id="edge-3" style="edgeStyle=orthogonalEdgeStyle;rounded=0;orthogonalLoop=1;jettySize=auto;html=1;endArrow=classic;strokeColor=#1976d2;strokeWidth=2;" parent="1" source="node-4" target="node-2" edge="1">
          <mxGeometry relative="1" as="geometry"/>
        </mxCell>
        <mxCell id="edge-4" style="edgeStyle=orthogonalEdgeStyle;rounded=0;orthogonalLoop=1;jettySize=auto;html=1;endArrow=classic;strokeColor=#1976d2;strokeWidth=2;" parent="1" source="node-5" target="node-2" edge="1">
          <mxGeometry relative="1" as="geometry"/>
        </mxCell>
        <mxCell id="edge-5" style="edgeStyle=orthogonalEdgeStyle;rounded=0;orthogonalLoop=1;jettySize=auto;html=1;endArrow=classic;strokeColor=#1976d2;strokeWidth=2;" parent="1" source="node-6" target="node-2" edge="1">
          <mxGeometry relative="1" as="geometry"/>
        </mxCell>
        <mxCell id="edge-6" style="edgeStyle=orthogonalEdgeStyle;rounded=0;orthogonalLoop=1;jettySize=auto;html=1;endArrow=classic;strokeColor=#1976d2;strokeWidth=2;" parent="1" source="node-7" target="node-1" edge="1">
          <mxGeometry relative="1" as="geometry"/>
        </mxCell>
        <mxCell id="edge-7" style="edgeStyle=orthogonalEdgeStyle;rounded=0;orthogonalLoop=1;jettySize=auto;html=1;endArrow=classic;strokeColor=#1976d2;strokeWidth=2;" parent="1" source="node-8" target="node-7" edge="1">
          <mxGeometry relative="1" as="geometry"/>
        </mxCell>
        <mxCell id="edge-8" style="edgeStyle=orthogonalEdgeStyle;rounded=0;orthogonalLoop=1;jettySize=auto;html=1;endArrow=classic;strokeColor=#1976d2;strokeWidth=2;" parent="1" source="node-9" target="node-7" edge="1">
          <mxGeometry relative="1" as="geometry"/>
        </mxCell>
        <mxCell id="edge-9" style="edgeStyle=orthogonalEdgeStyle;rounded=0;orthogonalLoop=1;jettySize=auto;html=1;endArrow=classic;strokeColor=#1976d2;strokeWidth=2;" parent="1" source="node-10" target="node-7" edge="1">
          <mxGeometry relative="1" as="geometry"/>
        </mxCell>
        <mxCell id="edge-10" style="edgeStyle=orthogonalEdgeStyle;rounded=0;orthogonalLoop=1;jettySize=auto;html=1;endArrow=classic;strokeColor=#1976d2;strokeWidth=2;" parent="1" source="node-11" target="node-7" edge="1">
          <mxGeometry relative="1" as="geometry"/>
        </mxCell>
        <mxCell id="edge-11" style="edgeStyle=orthogonalEdgeStyle;rounded=0;orthogonalLoop=1;jettySize=auto;html=1;endArrow=classic;strokeColor=#1976d2;strokeWidth=2;" parent="1" source="node-12" target="node-7" edge="1">
          <mxGeometry relative="1" as="geometry"/>
        </mxCell>
        <mxCell id="edge-12" style="edgeStyle=orthogonalEdgeStyle;rounded=0;orthogonalLoop=1;jettySize=auto;html=1;endArrow=classic;strokeColor=#1976d2;strokeWidth=2;" parent="1" source="node-13" target="node-7" edge="1">
          <mxGeometry relative="1" as="geometry"/>
        </mxCell>
        <mxCell id="edge-13" style="edgeStyle=orthogonalEdgeStyle;rounded=0;orthogonalLoop=1;jettySize=auto;html=1;endArrow=classic;strokeColor=#1976d2;strokeWidth=2;" parent="1" source="node-14" target="node-1" edge="1">
          <mxGeometry relative="1" as="geometry"/>
        </mxCell>
        <mxCell id="edge-14" style="edgeStyle=orthogonalEdgeStyle;rounded=0;orthogonalLoop=1;jettySize=auto;html=1;endArrow=classic;strokeColor=#1976d2;strokeWidth=2;" parent="1" source="node-15" target="node-14" edge="1">
          <mxGeometry relative="1" as="geometry"/>
        </mxCell>
        <mxCell id="edge-15" style="edgeStyle=orthogonalEdgeStyle;rounded=0;orthogonalLoop=1;jettySize=auto;html=1;endArrow=classic;strokeColor=#1976d2;strokeWidth=2;" parent="1" source="node-16" target="node-14" edge="1">
          <mxGeometry relative="1" as="geometry"/>
        </mxCell>
        <mxCell id="edge-16" style="edgeStyle=orthogonalEdgeStyle;rounded=0;orthogonalLoop=1;jettySize=auto;html=1;endArrow=classic;strokeColor=#1976d2;strokeWidth=2;" parent="1" source="node-17" target="node-14" edge="1">
          <mxGeometry relative="1" as="geometry"/>
        </mxCell>
        <mxCell id="edge-17" style="edgeStyle=orthogonalEdgeStyle;rounded=0;orthogonalLoop=1;jettySize=auto;html=1;endArrow=classic;strokeColor=#1976d2;strokeWidth=2;" parent="1" source="node-18" target="node-14" edge="1">
          <mxGeometry relative="1" as="geometry"/>
        </mxCell>
        <mxCell id="edge-18" style="edgeStyle=orthogonalEdgeStyle;rounded=0;orthogonalLoop=1;jettySize=auto;html=1;endArrow=classic;strokeColor=#1976d2;strokeWidth=2;" parent="1" source="node-19" target="node-14" edge="1">
          <mxGeometry relative="1" as="geometry"/>
        </mxCell>
        <mxCell id="edge-19" style="edgeStyle=orthogonalEdgeStyle;rounded=0;orthogonalLoop=1;jettySize=auto;html=1;endArrow=classic;strokeColor=#1976d2;strokeWidth=2;" parent="1" source="node-20" target="node-14" edge="1">
          <mxGeometry relative="1" as="geometry"/>
        </mxCell>
        <mxCell id="edge-20" style="edgeStyle=orthogonalEdgeStyle;rounded=0;orthogonalLoop=1;jettySize=auto;html=1;endArrow=classic;strokeColor=#1976d2;strokeWidth=2;" parent="1" source="node-21" target="node-14" edge="1">
          <mxGeometry relative="1" as="geometry"/>
        </mxCell>
        <mxCell id="edge-21" style="edgeStyle=orthogonalEdgeStyle;rounded=0;orthogonalLoop=1;jettySize=auto;html=1;endArrow=classic;strokeColor=#1976d2;strokeWidth=2;" parent="1" source="node-22" target="node-14" edge="1">
          <mxGeometry relative="1" as="geometry"/>
        </mxCell>
        <mxCell id="edge-22" style="edgeStyle=orthogonalEdgeStyle;rounded=0;orthogonalLoop=1;jettySize=auto;html=1;endArrow=classic;strokeColor=#1976d2;strokeWidth=2;" parent="1" source="node-23" target="node-1" edge="1">
          <mxGeometry relative="1" as="geometry"/>
        </mxCell>
        <mxCell id="edge-23" style="edgeStyle=orthogonalEdgeStyle;rounded=0;orthogonalLoop=1;jettySize=auto;html=1;endArrow=classic;strokeColor=#1976d2;strokeWidth=2;" parent="1" source="node-24" target="node-23" edge="1">
          <mxGeometry relative="1" as="geometry"/>
        </mxCell>
        <mxCell id="edge-24" style="edgeStyle=orthogonalEdgeStyle;rounded=0;orthogonalLoop=1;jettySize=auto;html=1;endArrow=classic;strokeColor=#1976d2;strokeWidth=2;" parent="1" source="node-25" target="node-23" edge="1">
          <mxGeometry relative="1" as="geometry"/>
        </mxCell>
        <mxCell id="edge-25" style="edgeStyle=orthogonalEdgeStyle;rounded=0;orthogonalLoop=1;jettySize=auto;html=1;endArrow=classic;strokeColor=#1976d2;strokeWidth=2;" parent="1" source="node-26" target="node-23" edge="1">
          <mxGeometry relative="1" as="geometry"/>
        </mxCell>
        <mxCell id="edge-26" style="edgeStyle=orthogonalEdgeStyle;rounded=0;orthogonalLoop=1;jettySize=auto;html=1;endArrow=classic;strokeColor=#1976d2;strokeWidth=2;" parent="1" source="node-27" target="node-23" edge="1">
          <mxGeometry relative="1" as="geometry"/>
        </mxCell>
        <mxCell id="edge-27" style="edgeStyle=orthogonalEdgeStyle;rounded=0;orthogonalLoop=1;jettySize=auto;html=1;endArrow=classic;strokeColor=#1976d2;strokeWidth=2;" parent="1" source="node-28" target="node-23" edge="1">
          <mxGeometry relative="1" as="geometry"/>
        </mxCell>
        <mxCell id="edge-28" style="edgeStyle=orthogonalEdgeStyle;rounded=0;orthogonalLoop=1;jettySize=auto;html=1;endArrow=classic;strokeColor=#1976d2;strokeWidth=2;" parent="1" source="node-29" target="node-23" edge="1">
          <mxGeometry relative="1" as="geometry"/>
        </mxCell>
        <mxCell id="edge-29" style="edgeStyle=orthogonalEdgeStyle;rounded=0;orthogonalLoop=1;jettySize=auto;html=1;endArrow=classic;strokeColor=#1976d2;strokeWidth=2;" parent="1" source="node-30" target="node-23" edge="1">
          <mxGeometry relative="1" as="geometry"/>
        </mxCell>
        <mxCell id="edge-30" style="edgeStyle=orthogonalEdgeStyle;rounded=0;orthogonalLoop=1;jettySize=auto;html=1;endArrow=classic;strokeColor=#1976d2;strokeWidth=2;" parent="1" source="node-31" target="node-23" edge="1">
          <mxGeometry relative="1" as="geometry"/>
        </mxCell>
        <mxCell id="edge-31" style="edgeStyle=orthogonalEdgeStyle;rounded=0;orthogonalLoop=1;jettySize=auto;html=1;endArrow=classic;strokeColor=#1976d2;strokeWidth=2;" parent="1" source="node-32" target="node-23" edge="1">
          <mxGeometry relative="1" as="geometry"/>
        </mxCell>
        <mxCell id="edge-32" style="edgeStyle=orthogonalEdgeStyle;rounded=0;orthogonalLoop=1;jettySize=auto;html=1;endArrow=classic;strokeColor=#1976d2;strokeWidth=2;" parent="1" source="node-33" target="node-23" edge="1">
          <mxGeometry relative="1" as="geometry"/>
        </mxCell>
        <mxCell id="edge-33" style="edgeStyle=orthogonalEdgeStyle;rounded=0;orthogonalLoop=1;jettySize=auto;html=1;endArrow=classic;strokeColor=#1976d2;strokeWidth=2;" parent="1" source="node-34" target="node-1" edge="1">
          <mxGeometry relative="1" as="geometry"/>
        </mxCell>
        <mxCell id="edge-34" style="edgeStyle=orthogonalEdgeStyle;rounded=0;orthogonalLoop=1;jettySize=auto;html=1;endArrow=classic;strokeColor=#1976d2;strokeWidth=2;" parent="1" source="node-35" target="node-34" edge="1">
          <mxGeometry relative="1" as="geometry"/>
        </mxCell>
        <mxCell id="edge-35" style="edgeStyle=orthogonalEdgeStyle;rounded=0;orthogonalLoop=1;jettySize=auto;html=1;endArrow=classic;strokeColor=#1976d2;strokeWidth=2;" parent="1" source="node-36" target="node-34" edge="1">
          <mxGeometry relative="1" as="geometry"/>
        </mxCell>
        <mxCell id="edge-36" style="edgeStyle=orthogonalEdgeStyle;rounded=0;orthogonalLoop=1;jettySize=auto;html=1;endArrow=classic;strokeColor=#1976d2;strokeWidth=2;" parent="1" source="node-37" target="node-34" edge="1">
          <mxGeometry relative="1" as="geometry"/>
        </mxCell>
        <mxCell id="edge-37" style="edgeStyle=orthogonalEdgeStyle;rounded=0;orthogonalLoop=1;jettySize=auto;html=1;endArrow=classic;strokeColor=#1976d2;strokeWidth=2;" parent="1" source="node-38" target="node-34" edge="1">
          <mxGeometry relative="1" as="geometry"/>
        </mxCell>
        <mxCell id="edge-38" style="edgeStyle=orthogonalEdgeStyle;rounded=0;orthogonalLoop=1;jettySize=auto;html=1;endArrow=classic;strokeColor=#1976d2;strokeWidth=2;" parent="1" source="node-39" target="node-34" edge="1">
          <mxGeometry relative="1" as="geometry"/>
        </mxCell>
        <mxCell id="edge-39" style="edgeStyle=orthogonalEdgeStyle;rounded=0;orthogonalLoop=1;jettySize=auto;html=1;endArrow=classic;strokeColor=#1976d2;strokeWidth=2;" parent="1" source="node-40" target="node-34" edge="1">
          <mxGeometry relative="1" as="geometry"/>
        </mxCell>
        <mxCell id="edge-40" style="edgeStyle=orthogonalEdgeStyle;rounded=0;orthogonalLoop=1;jettySize=auto;html=1;endArrow=classic;strokeColor=#1976d2;strokeWidth=2;" parent="1" source="node-41" target="node-34" edge="1">
          <mxGeometry relative="1" as="geometry"/>
        </mxCell>
        <mxCell id="edge-41" style="edgeStyle=orthogonalEdgeStyle;rounded=0;orthogonalLoop=1;jettySize=auto;html=1;endArrow=classic;strokeColor=#1976d2;strokeWidth=2;" parent="1" source="node-42" target="node-34" edge="1">
          <mxGeometry relative="1" as="geometry"/>
        </mxCell>
        <mxCell id="edge-42" style="edgeStyle=orthogonalEdgeStyle;rounded=0;orthogonalLoop=1;jettySize=auto;html=1;endArrow=classic;strokeColor=#1976d2;strokeWidth=2;" parent="1" source="node-43" target="node-34" edge="1">
          <mxGeometry relative="1" as="geometry"/>
        </mxCell>
        <mxCell id="edge-43" style="edgeStyle=orthogonalEdgeStyle;rounded=0;orthogonalLoop=1;jettySize=auto;html=1;endArrow=classic;strokeColor=#1976d2;strokeWidth=2;" parent="1" source="node-44" target="node-34" edge="1">
          <mxGeometry relative="1" as="geometry"/>
        </mxCell>
        <mxCell id="edge-44" style="edgeStyle=orthogonalEdgeStyle;rounded=0;orthogonalLoop=1;jettySize=auto;html=1;endArrow=classic;strokeColor=#1976d2;strokeWidth=2;" parent="1" source="node-45" target="node-34" edge="1">
          <mxGeometry relative="1" as="geometry"/>
        </mxCell>
        <mxCell id="edge-45" style="edgeStyle=orthogonalEdgeStyle;rounded=0;orthogonalLoop=1;jettySize=auto;html=1;endArrow=classic;strokeColor=#1976d2;strokeWidth=2;" parent="1" source="node-46" target="node-34" edge="1">
          <mxGeometry relative="1" as="geometry"/>
        </mxCell>
      </root>
    </mxGraphModel>
  </diagram>
</mxfile>
